<svg width="395" height="395" viewBox="0 0 395 395" fill="none" xmlns="http://www.w3.org/2000/svg">
<path d="M269.008 20.896C252.111 20.896 238.362 34.6443 238.362 51.5413V344.386C238.362 361.287 252.111 375.036 269.008 375.036C285.909 375.036 299.657 361.287 299.657 344.386V51.5413C299.657 34.6443 285.909 20.896 269.008 20.896V20.896ZM286.033 344.386C286.033 353.778 278.399 361.416 269.008 361.416C259.616 361.416 251.982 353.778 251.982 344.386V51.5413C251.982 42.1536 259.616 34.5157 269.008 34.5157C278.399 34.5157 286.033 42.1536 286.033 51.5413V344.386Z" fill="#EDEDED"/>
<path d="M364.353 20.896C347.452 20.896 333.708 34.6443 333.708 51.5413V344.386C333.708 361.287 347.452 375.036 364.353 375.036C381.254 375.036 394.999 361.287 394.999 344.386V51.5413C394.999 34.6443 381.254 20.896 364.353 20.896V20.896ZM381.379 344.386C381.379 353.778 373.745 361.416 364.353 361.416C354.962 361.416 347.328 353.778 347.328 344.386V51.5413C347.328 42.1536 354.962 34.5157 364.353 34.5157C373.745 34.5157 381.379 42.1536 381.379 51.5413V344.386Z" fill="#EDEDED"/>
<path d="M211.353 185.704L28.0461 79.2871C22.1929 75.8929 15.2096 75.8773 9.35648 79.2521C3.49943 82.6307 0 88.6787 0 95.4359V308.266C0 315.027 3.49942 321.071 9.34869 324.446C12.2714 326.125 15.4746 326.967 18.674 326.967C21.8967 326.967 25.1117 326.114 28.0461 324.411L211.353 217.998C217.179 214.615 220.651 208.579 220.651 201.845C220.651 195.115 217.175 189.079 211.353 185.704V185.704ZM204.518 206.221L21.2109 312.634C18.9156 313.955 16.9126 313.082 16.1488 312.642C15.3889 312.205 13.6197 310.904 13.6197 308.266V95.4359C13.6197 92.8016 15.3889 91.4961 16.1527 91.0597C16.6125 90.7947 17.5361 90.366 18.7013 90.366C19.4534 90.366 20.3107 90.5453 21.2109 91.0636L204.518 197.484C206.786 198.801 207.031 200.976 207.031 201.849C207.031 202.722 206.786 204.9 204.518 206.221Z" fill="#EDEDED"/>
</svg>
