<svg width="596" height="596" viewBox="0 0 596 596" fill="none" xmlns="http://www.w3.org/2000/svg">
<path d="M503.762 0C495.929 0 489.571 6.34314 489.571 14.1905V270.967L100.298 2.51171C95.956 -0.482476 90.3082 -0.808857 85.6395 1.61771C80.9708 4.07267 78.0476 8.91162 78.0476 14.1905V581.81C78.0476 587.088 80.9708 591.927 85.6395 594.382C87.7113 595.461 89.9818 596 92.2381 596C95.062 596 97.8717 595.149 100.298 593.488L489.571 325.033V581.81C489.571 589.657 495.929 596 503.762 596C511.595 596 517.952 589.657 517.952 581.81V14.1905C517.952 6.34314 511.595 0 503.762 0ZM106.429 554.791V41.2091L478.772 298L106.429 554.791Z" fill="#EDEDED"/>
</svg>
