<svg width="53" height="47" viewBox="0 0 53 47" fill="none" xmlns="http://www.w3.org/2000/svg">
<path d="M28.404 0.413788C27.428 -0.138212 26.273 -0.120212 25.314 0.457788C25.268 0.484788 25.224 0.516788 25.184 0.550788L11.634 12.0138H1C0.447 12.0138 0 12.4608 0 13.0138V32.0138C0 32.2798 0.105 32.5338 0.293 32.7208C0.481 32.9078 0.734 33.0138 1 33.0138L11.61 33.0088L25.153 45.4488C25.203 45.4948 25.257 45.5348 25.314 45.5688C25.806 45.8658 26.351 46.0148 26.896 46.0148C27.413 46.0138 27.929 45.8808 28.404 45.6128C29.403 45.0488 30 44.0188 30 42.8578V3.16979C30 2.00879 29.403 0.978788 28.404 0.413788ZM28 42.8578C28 43.2888 27.783 43.6678 27.421 43.8728C27.266 43.9598 26.873 44.1278 26.421 43.8988L13 31.5698V27.0138C13 26.4608 12.553 26.0138 12 26.0138C11.447 26.0138 11 26.4608 11 27.0138V31.0098L2 31.0138V14.0138H11V18.0138C11 18.5668 11.447 19.0138 12 19.0138C12.553 19.0138 13 18.5668 13 18.0138V13.4778L26.405 2.13779C26.866 1.89579 27.265 2.06779 27.421 2.15579C27.783 2.36079 28 2.73979 28 3.16979V42.8578Z" fill="#EDEDED"/>
<path d="M38.797 4.06676C38.274 3.88976 37.706 4.16976 37.528 4.69276C37.351 5.21476 37.631 5.78376 38.154 5.96176C45.255 8.37276 50.026 15.0248 50.026 22.5148C50.026 29.9978 45.264 36.6508 38.177 39.0688C37.655 39.2468 37.375 39.8148 37.554 40.3388C37.696 40.7538 38.084 41.0158 38.5 41.0158C38.607 41.0158 38.716 40.9988 38.823 40.9618C46.719 38.2688 52.025 30.8558 52.025 22.5158C52.026 14.1668 46.71 6.75376 38.797 4.06676Z" fill="#EDEDED"/>
<path d="M43.026 22.5144C43.026 16.5424 39.017 11.2124 33.277 9.55244C32.744 9.40144 32.193 9.70444 32.039 10.2364C31.886 10.7664 32.191 11.3214 32.723 11.4744C37.612 12.8874 41.027 17.4274 41.027 22.5144C41.027 27.6014 37.612 32.1414 32.723 33.5544C32.192 33.7074 31.886 34.2624 32.039 34.7924C32.166 35.2304 32.565 35.5154 33 35.5154C33.092 35.5154 33.185 35.5024 33.277 35.4764C39.018 33.8164 43.026 28.4864 43.026 22.5144Z" fill="#EDEDED"/>
</svg>
