<svg width="54" height="48" viewBox="0 0 54 48" fill="none" xmlns="http://www.w3.org/2000/svg">
<path d="M46.414 23.0003L53.707 15.7073C54.098 15.3163 54.098 14.6842 53.707 14.2932C53.316 13.9022 52.684 13.9022 52.293 14.2932L45 21.5863L37.707 14.2932C37.316 13.9022 36.684 13.9022 36.293 14.2932C35.902 14.6842 35.902 15.3163 36.293 15.7073L43.586 23.0003L36.293 30.2932C35.902 30.6842 35.902 31.3163 36.293 31.7073C36.488 31.9023 36.744 32.0002 37 32.0002C37.256 32.0002 37.512 31.9023 37.707 31.7073L45 24.4143L52.293 31.7073C52.488 31.9023 52.744 32.0002 53 32.0002C53.256 32.0002 53.512 31.9023 53.707 31.7073C54.098 31.3163 54.098 30.6842 53.707 30.2932L46.414 23.0003Z" fill="#EDEDED"/>
<path d="M28.404 1.40012C27.429 0.848116 26.273 0.866116 25.314 1.44412C25.268 1.47112 25.224 1.50312 25.184 1.53712L11.634 13.0001H1C0.447 13.0001 0 13.4471 0 14.0001V33.0001C0 33.2661 0.105 33.5201 0.293 33.7071C0.481 33.8941 0.734 34.0001 1 34.0001L11.61 33.9951L25.153 46.4351C25.203 46.4811 25.257 46.5211 25.314 46.5551C25.806 46.8521 26.351 47.0011 26.896 47.0011C27.413 47.0001 27.929 46.8671 28.404 46.5991C29.403 46.0351 30 45.0051 30 43.8441V4.15612C30 2.99512 29.403 1.96512 28.404 1.40012ZM28 43.8441C28 44.2751 27.783 44.6541 27.421 44.8591C27.266 44.9461 26.873 45.1141 26.421 44.8851L13 32.5561V28.0001C13 27.4471 12.553 27.0001 12 27.0001C11.447 27.0001 11 27.4471 11 28.0001V31.9961L2 32.0001V15.0001H11V19.0001C11 19.5531 11.447 20.0001 12 20.0001C12.553 20.0001 13 19.5531 13 19.0001V14.4641L26.405 3.12412C26.865 2.88212 27.265 3.05412 27.421 3.14212C27.783 3.34712 28 3.72512 28 4.15612V43.8441Z" fill="#EDEDED"/>
</svg>
